# Blender v2.77 (sub 0) OBJ File: 'boardv2.blend'
# www.blender.org
mtllib boardv2.mtl
o Cube
v 1.532524 0.016446 -1.532524
v 1.532524 0.016446 1.532524
v -1.532524 0.016446 1.532523
v -1.532523 0.016446 -1.532524
v 1.206947 0.154179 -1.206946
v 1.206946 0.154179 1.206948
v -1.206947 0.154179 1.206946
v -1.206947 0.154179 -1.206947
v -1.491420 0.020741 1.491419
v -1.233116 0.138771 1.233115
v -1.461857 0.029264 1.461857
v -1.428879 0.040629 1.428879
v -1.393753 0.054398 1.393753
v -1.357829 0.070043 1.357829
v -1.322488 0.086962 1.322487
v -1.289086 0.104506 1.289086
v -1.258909 0.122000 1.258909
v 1.233115 0.138771 1.233116
v 1.491419 0.020741 1.491420
v 1.258908 0.122000 1.258909
v 1.289085 0.104506 1.289087
v 1.322487 0.086962 1.322488
v 1.357829 0.070043 1.357829
v 1.393753 0.054398 1.393754
v 1.428879 0.040629 1.428879
v 1.461857 0.029264 1.461857
v 1.233116 0.138771 -1.233115
v 1.491420 0.020741 -1.491419
v 1.258909 0.122000 -1.258909
v 1.289087 0.104506 -1.289086
v 1.322488 0.086962 -1.322487
v 1.357829 0.070043 -1.357829
v 1.393754 0.054398 -1.393753
v 1.428879 0.040629 -1.428879
v 1.461857 0.029264 -1.461857
v -1.233115 0.138771 -1.233115
v -1.491419 0.020741 -1.491420
v -1.258909 0.122000 -1.258909
v -1.289086 0.104506 -1.289086
v -1.322487 0.086962 -1.322487
v -1.357829 0.070043 -1.357829
v -1.393753 0.054398 -1.393753
v -1.428879 0.040629 -1.428879
v -1.461857 0.029264 -1.461857
vt 0.0000 0.0000
vt 1.0000 0.5000
vt 0.0000 0.5000
vt 0.1062 0.9469
vt 0.8938 0.5531
vt 0.8938 0.9469
vt 0.0134 0.9933
vt 0.0000 0.5000
vt 0.0134 0.5067
vt 0.9023 0.5488
vt 0.1062 0.5531
vt 0.0977 0.5488
vt 0.9866 0.9933
vt 1.0000 0.5000
vt 1.0000 1.0000
vt 0.0977 0.9512
vt 0.9023 0.9512
vt 0.0000 1.0000
vt 0.0893 0.5446
vt 0.0893 0.9554
vt 0.0794 0.5397
vt 0.0794 0.9603
vt 0.0685 0.5343
vt 0.0685 0.9657
vt 0.0570 0.5285
vt 0.0453 0.9774
vt 0.0453 0.5226
vt 0.0338 0.9831
vt 0.0338 0.5169
vt 0.0231 0.5115
vt 0.0231 0.9885
vt 0.9769 0.9885
vt 0.9662 0.9831
vt 0.9547 0.9774
vt 0.0570 0.9715
vt 0.9430 0.9715
vt 0.9315 0.9657
vt 0.9206 0.9603
vt 0.9107 0.9554
vt 0.9769 0.5115
vt 0.9866 0.5067
vt 0.9662 0.5169
vt 0.9547 0.5226
vt 0.9430 0.5285
vt 0.9315 0.5343
vt 0.9206 0.5397
vt 0.9107 0.5446
vt 1.0000 0.0000
vn 0.0000 -1.0000 -0.0000
vn 0.0000 1.0000 0.0000
vn -0.1039 0.9946 -0.0000
vn -0.0000 0.8617 0.5074
vn 0.1039 0.9946 0.0000
vn -0.5074 0.8617 -0.0000
vn 0.0000 0.8617 -0.5074
vn 0.5074 0.8617 0.0000
vn 0.0000 0.9946 -0.1039
vn -0.5451 0.8384 -0.0000
vn -0.5015 0.8651 -0.0000
vn -0.4650 0.8853 -0.0000
vn -0.4318 0.9020 -0.0000
vn -0.3993 0.9168 -0.0000
vn -0.3650 0.9310 -0.0000
vn -0.3258 0.9454 -0.0000
vn -0.2770 0.9609 -0.0000
vn 0.0000 0.9609 -0.2770
vn 0.0000 0.9454 -0.3258
vn 0.0000 0.9310 -0.3650
vn 0.0000 0.9168 -0.3993
vn 0.0000 0.9020 -0.4318
vn 0.0000 0.8853 -0.4650
vn 0.0000 0.8651 -0.5015
vn 0.0000 0.8384 -0.5451
vn 0.2770 0.9609 0.0000
vn 0.3258 0.9454 0.0000
vn 0.3650 0.9310 0.0000
vn 0.3993 0.9168 0.0000
vn 0.4318 0.9020 0.0000
vn 0.4650 0.8853 0.0000
vn 0.5015 0.8651 0.0000
vn 0.5451 0.8384 0.0000
vn -0.0000 0.9609 0.2770
vn -0.0000 0.9454 0.3258
vn -0.0000 0.9310 0.3650
vn -0.0000 0.9168 0.3993
vn -0.0000 0.9020 0.4318
vn -0.0000 0.8853 0.4650
vn -0.0000 0.8651 0.5015
vn -0.0000 0.8384 0.5451
vn -0.0000 0.9946 0.1039
usemtl Material
s off
f 1/1/1 3/2/1 4/3/1
f 8/4/2 6/5/2 5/6/2
f 37/7/3 3/8/3 9/9/3
f 18/10/4 7/11/4 10/12/4
f 28/13/5 2/14/5 1/15/5
f 10/12/6 8/4/6 36/16/6
f 36/16/7 5/6/7 27/17/7
f 27/17/8 6/5/8 18/10/8
f 37/7/9 1/15/9 4/18/9
f 36/16/10 17/19/10 10/12/10
f 38/20/11 16/21/11 17/19/11
f 39/22/12 15/23/12 16/21/12
f 40/24/13 14/25/13 15/23/13
f 14/25/14 42/26/14 13/27/14
f 13/27/15 43/28/15 12/29/15
f 43/28/16 11/30/16 12/29/16
f 44/31/17 9/9/17 11/30/17
f 37/7/18 35/32/18 28/13/18
f 35/32/19 43/28/19 34/33/19
f 34/33/20 42/26/20 33/34/20
f 33/34/21 41/35/21 32/36/21
f 32/36/22 40/24/22 31/37/22
f 31/37/23 39/22/23 30/38/23
f 39/22/24 29/39/24 30/38/24
f 38/20/25 27/17/25 29/39/25
f 28/13/26 26/40/26 19/41/26
f 35/32/27 25/42/27 26/40/27
f 25/42/28 33/34/28 24/43/28
f 24/43/29 32/36/29 23/44/29
f 23/44/30 31/37/30 22/45/30
f 22/45/31 30/38/31 21/46/31
f 30/38/32 20/47/32 21/46/32
f 20/47/33 27/17/33 18/10/33
f 19/41/34 11/30/34 9/9/34
f 26/40/35 12/29/35 11/30/35
f 12/29/36 24/43/36 13/27/36
f 13/27/37 23/44/37 14/25/37
f 14/25/38 22/45/38 15/23/38
f 15/23/39 21/46/39 16/21/39
f 16/21/40 20/47/40 17/19/40
f 20/47/41 10/12/41 17/19/41
f 3/8/42 19/41/42 9/9/42
f 1/1/1 2/48/1 3/2/1
f 8/4/2 7/11/2 6/5/2
f 37/7/3 4/18/3 3/8/3
f 18/10/4 6/5/4 7/11/4
f 28/13/5 19/41/5 2/14/5
f 10/12/6 7/11/6 8/4/6
f 36/16/7 8/4/7 5/6/7
f 27/17/8 5/6/8 6/5/8
f 37/7/9 28/13/9 1/15/9
f 36/16/10 38/20/10 17/19/10
f 38/20/11 39/22/11 16/21/11
f 39/22/12 40/24/12 15/23/12
f 40/24/13 41/35/13 14/25/13
f 14/25/14 41/35/14 42/26/14
f 13/27/15 42/26/15 43/28/15
f 43/28/16 44/31/16 11/30/16
f 44/31/17 37/7/17 9/9/17
f 37/7/18 44/31/18 35/32/18
f 35/32/19 44/31/19 43/28/19
f 34/33/20 43/28/20 42/26/20
f 33/34/21 42/26/21 41/35/21
f 32/36/22 41/35/22 40/24/22
f 31/37/23 40/24/23 39/22/23
f 39/22/24 38/20/24 29/39/24
f 38/20/25 36/16/25 27/17/25
f 28/13/26 35/32/26 26/40/26
f 35/32/27 34/33/27 25/42/27
f 25/42/28 34/33/28 33/34/28
f 24/43/29 33/34/29 32/36/29
f 23/44/30 32/36/30 31/37/30
f 22/45/31 31/37/31 30/38/31
f 30/38/32 29/39/32 20/47/32
f 20/47/33 29/39/33 27/17/33
f 19/41/34 26/40/34 11/30/34
f 26/40/35 25/42/35 12/29/35
f 12/29/36 25/42/36 24/43/36
f 13/27/37 24/43/37 23/44/37
f 14/25/38 23/44/38 22/45/38
f 15/23/39 22/45/39 21/46/39
f 16/21/40 21/46/40 20/47/40
f 20/47/41 18/10/41 10/12/41
f 3/8/42 2/14/42 19/41/42
